<svg width="373" height="100" viewBox="0 0 373 100" xmlns="http://www.w3.org/2000/svg" xmlns:xlink="http://www.w3.org/1999/xlink">
    <defs>
        <path id="rqmk6nnwya" d="M0 99.781h372.332V0H0z"/>
    </defs>
    <g fill="none" fill-rule="evenodd">
        <path d="M96.206 39.584c2.254-2.153 3.38-5.177 3.38-9.075 0-3.896-1.126-6.92-3.38-9.073-2.252-2.15-5.41-3.227-9.469-3.227h-4.933v24.603h4.933c4.058 0 7.217-1.075 9.47-3.228m11.203 2.161c-1.806 3.269-4.405 5.816-7.794 7.643-3.39 1.827-7.378 2.74-11.966 2.74H71.391V9.076h16.26c4.628 0 8.626.894 11.995 2.68 3.37 1.786 5.958 4.303 7.764 7.55 1.807 3.248 2.711 6.983 2.711 11.204 0 4.222-.904 7.97-2.71 11.236M125.374 28.47c-1.36 1.442-2.04 3.523-2.04 6.243s.68 4.79 2.04 6.21c1.36 1.422 3.035 2.132 5.025 2.132 1.988 0 3.652-.71 4.993-2.131 1.338-1.42 2.009-3.49 2.009-6.211 0-2.72-.671-4.801-2.01-6.242-1.34-1.441-3.004-2.162-4.992-2.162-1.99 0-3.665.72-5.025 2.162m14.067-9.072c2.658 1.4 4.749 3.418 6.272 6.058 1.522 2.639 2.284 5.723 2.284 9.256 0 3.532-.762 6.618-2.284 9.256-1.523 2.64-3.614 4.659-6.272 6.059-2.66 1.4-5.674 2.1-9.042 2.1-3.371 0-6.395-.7-9.075-2.1-2.68-1.4-4.78-3.42-6.303-6.06-1.521-2.637-2.282-5.723-2.282-9.255 0-3.533.76-6.617 2.282-9.256 1.523-2.64 3.624-4.658 6.303-6.058 2.68-1.401 5.704-2.102 9.075-2.102 3.368 0 6.383.7 9.042 2.102M162.763 28.47c-1.36 1.442-2.04 3.523-2.04 6.243s.68 4.79 2.04 6.21c1.36 1.422 3.035 2.132 5.025 2.132 1.988 0 3.653-.71 4.993-2.131 1.338-1.42 2.01-3.49 2.01-6.211 0-2.72-.672-4.801-2.01-6.242-1.34-1.441-3.005-2.162-4.993-2.162-1.99 0-3.665.72-5.025 2.162m14.067-9.072c2.658 1.4 4.75 3.418 6.272 6.058 1.523 2.639 2.285 5.723 2.285 9.256 0 3.532-.762 6.618-2.285 9.256-1.523 2.64-3.614 4.659-6.272 6.059-2.659 1.4-5.674 2.1-9.042 2.1-3.37 0-6.395-.7-9.075-2.1-2.678-1.4-4.78-3.42-6.302-6.06-1.522-2.637-2.282-5.723-2.282-9.255 0-3.533.76-6.617 2.282-9.256 1.523-2.64 3.624-4.658 6.303-6.058 2.68-1.401 5.703-2.102 9.075-2.102 3.368 0 6.383.7 9.042 2.102M221.923 23.142c0-3.776-2.091-5.665-6.273-5.665h-5.298v11.206h5.298c4.182 0 6.273-1.846 6.273-5.541zm-11.571 13.884v15.102h-10.413V9.076h16.869c5.115 0 9.012 1.269 11.69 3.806 2.68 2.537 4.02 5.959 4.02 10.26 0 2.68-.598 5.065-1.795 7.156-1.2 2.09-2.975 3.735-5.33 4.933-2.354 1.197-5.216 1.796-8.585 1.796h-6.456zM251.549 19.61a12.816 12.816 0 0 1 6.668-1.828v11.145h-2.985c-2.76 0-4.901.588-6.424 1.765-1.523 1.178-2.284 3.167-2.284 5.968V52.13H236.11v-33.98h10.413v6.393c1.3-2.07 2.974-3.715 5.025-4.933" fill="#000"/>
        <mask id="ekxpz0nkjb" fill="#fff">
            <use xlink:href="#rqmk6nnwya"/>
        </mask>
        <path fill="#000" mask="url(#ekxpz0nkjb)" d="M261.078 52.128h10.413v-33.98h-10.413zM331.045 21.649c2.396 2.58 3.594 6.162 3.594 10.749v19.73h-10.352V33.615c0-2.151-.579-3.825-1.736-5.023-1.157-1.198-2.73-1.798-4.72-1.798-2.07 0-3.704.641-4.9 1.92-1.2 1.278-1.798 3.075-1.798 5.389v18.025H300.72V33.615c0-2.151-.569-3.825-1.705-5.023-1.137-1.198-2.7-1.798-4.689-1.798-2.07 0-3.714.631-4.933 1.89-1.218 1.258-1.827 3.064-1.827 5.419v18.025h-10.413v-33.98h10.413v5.785c.893-1.907 2.263-3.41 4.111-4.506 1.847-1.096 4.01-1.645 6.486-1.645 2.598 0 4.891.6 6.881 1.797 1.988 1.199 3.491 2.914 4.506 5.146a13.613 13.613 0 0 1 4.841-5.054c2.05-1.259 4.313-1.889 6.79-1.889 4.18 0 7.47 1.291 9.864 3.867M360.002 27.192c-1.24-1.117-2.771-1.675-4.598-1.675-1.91 0-3.492.568-4.751 1.705-1.26 1.137-1.97 2.801-2.13 4.993h13.274c.04-2.23-.557-3.906-1.795-5.023m12.026 9.408H348.46c.122 2.558.772 4.396 1.95 5.511 1.177 1.118 2.679 1.675 4.506 1.675 1.542 0 2.82-.386 3.837-1.158a5.411 5.411 0 0 0 2.009-2.983h11.022a14.419 14.419 0 0 1-2.923 6.424c-1.503 1.89-3.41 3.371-5.724 4.445-2.315 1.077-4.893 1.614-7.734 1.614-3.33 0-6.283-.7-8.861-2.1-2.577-1.4-4.598-3.42-6.058-6.06-1.463-2.638-2.193-5.724-2.193-9.256 0-3.57.72-6.668 2.162-9.287 1.44-2.617 3.46-4.626 6.059-6.027 2.598-1.4 5.562-2.102 8.89-2.102 3.37 0 6.334.691 8.89 2.07 2.559 1.381 4.539 3.32 5.939 5.817 1.4 2.496 2.1 5.368 2.1 8.615 0 .854-.1 1.788-.304 2.802"/>
        <path d="M272.496 6.284a6.21 6.21 0 0 1-6.211 6.211 6.21 6.21 0 1 1 0-12.423 6.212 6.212 0 0 1 6.21 6.212M47.97 21.85a3.117 3.117 0 0 1-4.407 0L30.336 8.622a3.117 3.117 0 1 1 4.409-4.409L47.97 17.44a3.117 3.117 0 0 1 0 4.41zM0 0v52.128h26.064V26.064h26.065V0H-.001z" fill="#E2211C" mask="url(#ekxpz0nkjb)"/>
        <path d="M47.97 30.278a3.117 3.117 0 0 0-4.407 0L30.336 43.505a3.117 3.117 0 1 0 4.409 4.41L47.97 34.686a3.117 3.117 0 0 0 0-4.409" fill="#E2211C" mask="url(#ekxpz0nkjb)"/>
        <path d="M99.755 77.616c.83-1.501 1.962-2.67 3.398-3.508 1.435-.838 3.037-1.257 4.805-1.257 2.154 0 4 .511 5.538 1.533 1.538 1.022 2.656 2.463 3.357 4.323h-2.265c-.553-1.307-1.395-2.329-2.527-3.066-1.134-.736-2.5-1.105-4.103-1.105-1.418 0-2.692.331-3.826.995-1.132.662-2.02 1.615-2.665 2.858-.644 1.243-.966 2.684-.966 4.323 0 1.639.322 3.075.966 4.308.645 1.234 1.534 2.182 2.665 2.846 1.133.662 2.408.994 3.826.994 1.603 0 2.97-.364 4.103-1.091 1.131-.728 1.973-1.736 2.526-3.025h2.266c-.701 1.842-1.825 3.269-3.37 4.281-1.547 1.013-3.389 1.519-5.525 1.519-1.767 0-3.37-.418-4.805-1.256-1.437-.838-2.569-2.003-3.398-3.494-.828-1.491-1.242-3.186-1.242-5.082 0-1.897.413-3.595 1.242-5.096M130.054 90.238c.847-.451 1.533-1.132 2.058-2.044.525-.911.787-2.03.787-3.355 0-1.327-.258-2.445-.774-3.356-.515-.912-1.196-1.593-2.043-2.044a5.787 5.787 0 0 0-2.762-.677 5.79 5.79 0 0 0-2.763.677c-.847.451-1.523 1.132-2.029 2.044-.507.911-.76 2.029-.76 3.356 0 1.325.253 2.444.76 3.355.506.912 1.178 1.593 2.016 2.044a5.695 5.695 0 0 0 2.748.677c.994 0 1.915-.225 2.762-.677m-6.587 1.409c-1.133-.636-2.026-1.537-2.68-2.707-.653-1.169-.98-2.536-.98-4.101s.331-2.933.995-4.102c.662-1.169 1.564-2.072 2.706-2.707 1.142-.635 2.421-.953 3.84-.953 1.417 0 2.701.318 3.852.953a6.838 6.838 0 0 1 2.707 2.707c.653 1.169.98 2.537.98 4.102 0 1.546-.33 2.909-.994 4.087a6.881 6.881 0 0 1-2.734 2.721c-1.16.635-2.449.953-3.867.953-1.418 0-2.693-.318-3.825-.953M150.81 81.566c-.487-.912-1.155-1.606-2.001-2.085-.848-.48-1.805-.72-2.873-.72a5.538 5.538 0 0 0-2.831.747c-.856.497-1.533 1.206-2.03 2.127-.497.92-.746 1.989-.746 3.204s.249 2.283.746 3.204c.497.92 1.174 1.629 2.03 2.127.856.497 1.8.745 2.83.745 1.069 0 2.026-.244 2.874-.732.846-.488 1.514-1.197 2.002-2.127.488-.93.732-2.011.732-3.245 0-1.252-.244-2.334-.732-3.245m-8.203-3.48c1.04-.672 2.279-1.008 3.715-1.008 1.362 0 2.592.317 3.687.952 1.095.636 1.95 1.538 2.569 2.707.616 1.17.925 2.527.925 4.074 0 1.547-.31 2.91-.925 4.088-.618 1.178-1.474 2.09-2.57 2.734-1.094.645-2.324.967-3.686.967-1.418 0-2.652-.336-3.701-1.008-1.05-.672-1.814-1.515-2.293-2.527v10.44h-1.906V77.298h1.906v3.315c.479-1.013 1.238-1.855 2.279-2.527M169.496 77.298l-8.95 22.18h-2.015l2.927-7.182-6.187-14.998h2.127l5.138 12.871 4.97-12.87zM183.417 73.073v1.602h-5.358v17.704h-1.934V74.674h-5.386v-1.602zM190.363 77.795c.874-.515 1.947-.773 3.218-.773v2.016h-.525c-1.4 0-2.523.378-3.37 1.132-.847.756-1.27 2.017-1.27 3.784v8.424h-1.934v-15.08h1.934v2.68a4.722 4.722 0 0 1 1.947-2.183M208.026 81.635c-.497-.92-1.174-1.63-2.03-2.128a5.538 5.538 0 0 0-2.831-.746c-1.068 0-2.026.24-2.873.72-.847.479-1.515 1.174-2.002 2.085-.488.91-.732 1.992-.732 3.245 0 1.233.244 2.315.732 3.244.487.931 1.155 1.64 2.002 2.127.847.49 1.805.733 2.873.733a5.537 5.537 0 0 0 2.831-.746c.856-.496 1.533-1.206 2.03-2.126.497-.922.746-1.99.746-3.205 0-1.214-.249-2.282-.746-3.203m-11.504-.898c.617-1.17 1.473-2.072 2.569-2.706 1.095-.637 2.334-.954 3.715-.954 1.436 0 2.674.332 3.715.995 1.04.662 1.79 1.51 2.251 2.54V77.3h1.933v15.08h-1.933v-3.343c-.479 1.032-1.239 1.883-2.279 2.555-1.041.672-2.279 1.009-3.715 1.009-1.363 0-2.592-.322-3.687-.966-1.096-.645-1.952-1.558-2.569-2.736-.617-1.177-.925-2.54-.925-4.087 0-1.548.308-2.905.925-4.074M226.67 81.635c-.497-.92-1.174-1.63-2.03-2.128a5.538 5.538 0 0 0-2.831-.746c-1.069 0-2.026.24-2.874.72-.846.479-1.514 1.174-2.001 2.085-.488.91-.732 1.992-.732 3.245 0 1.233.244 2.315.732 3.244.487.931 1.155 1.64 2.001 2.127.847.49 1.805.733 2.874.733a5.537 5.537 0 0 0 2.83-.746c.856-.496 1.534-1.206 2.03-2.126.498-.922.746-1.99.746-3.205 0-1.214-.248-2.282-.745-3.203m-11.49-.898c.625-1.17 1.487-2.072 2.582-2.706 1.095-.637 2.333-.954 3.714-.954 1.327 0 2.524.323 3.591.966 1.069.645 1.851 1.483 2.349 2.514V71.94h1.933v20.44h-1.933v-3.37c-.462 1.05-1.216 1.91-2.266 2.582-1.05.672-2.284 1.009-3.7 1.009-1.381 0-2.62-.322-3.715-.966-1.097-.645-1.953-1.558-2.57-2.736-.617-1.177-.924-2.54-.924-4.087 0-1.548.313-2.905.938-4.074M233.767 92.379h1.934V77.298h-1.934v15.081zm-.027-18.34a1.386 1.386 0 0 1-.415-1.022c0-.405.138-.741.415-1.008.276-.267.607-.4.994-.4s.718.133.994.4.415.603.415 1.008-.139.746-.415 1.022a1.355 1.355 0 0 1-.994.414c-.387 0-.718-.138-.994-.414zM251.583 78.693c1.14 1.114 1.712 2.73 1.712 4.847v8.84h-1.905V83.76c0-1.638-.411-2.89-1.23-3.756-.82-.866-1.938-1.298-3.355-1.298-1.455 0-2.615.46-3.481 1.381-.866.92-1.298 2.274-1.298 4.06v8.231h-1.933V77.3h1.933v2.568a4.932 4.932 0 0 1 2.072-2.113c.902-.488 1.923-.732 3.066-.732 1.804 0 3.277.557 4.419 1.671M269.121 81.635c-.497-.92-1.174-1.63-2.03-2.128a5.538 5.538 0 0 0-2.83-.746c-1.069 0-2.027.24-2.874.72-.847.479-1.515 1.174-2.002 2.085-.488.91-.732 1.992-.732 3.245 0 1.233.244 2.315.732 3.244.487.931 1.155 1.64 2.002 2.127.847.49 1.805.733 2.873.733a5.537 5.537 0 0 0 2.831-.746c.856-.496 1.533-1.206 2.03-2.126.497-.922.746-1.99.746-3.205 0-1.214-.249-2.282-.746-3.203m-1.519-3.564c1.05.663 1.804 1.502 2.265 2.514v-3.286h1.933v15.466c0 1.382-.3 2.606-.898 3.674a6.206 6.206 0 0 1-2.499 2.472c-1.068.58-2.283.87-3.646.87-1.933 0-3.54-.46-4.82-1.382-1.28-.92-2.076-2.172-2.389-3.755h1.906c.332 1.05.962 1.886 1.892 2.512.93.626 2.067.94 3.411.94.976 0 1.85-.208 2.624-.621.773-.414 1.381-1.027 1.823-1.837.441-.81.663-1.767.663-2.873v-3.728c-.479 1.031-1.239 1.882-2.279 2.554-1.04.672-2.27 1.009-3.687 1.009-1.38 0-2.62-.322-3.715-.966-1.096-.645-1.952-1.558-2.569-2.736-.617-1.177-.925-2.54-.925-4.087 0-1.548.308-2.905.925-4.074.617-1.17 1.473-2.072 2.57-2.706 1.094-.637 2.333-.954 3.714-.954 1.417 0 2.651.332 3.701.995" fill="#58595B" mask="url(#ekxpz0nkjb)"/>
    </g>
</svg>
